/* XPM */
static char *_edda921dd994a5be74a443e6cbe5ee2bpuiFkzT9ZYNGs2g[] = {
/* columns rows colors chars-per-pixel */
"50 50 120 2 ",
"   c black",
".  c #100D0A",
"X  c #15110F",
"o  c #041618",
"O  c #0D191B",
"+  c #1C1615",
"@  c #161C1C",
"#  c #1B1E1E",
"$  c #291C0F",
"%  c #3C1C06",
"&  c #2E1716",
"*  c #231C1A",
"=  c #331E1E",
"-  c #2C231F",
";  c #342414",
":  c #33241D",
">  c #3C271C",
",  c #1D1F20",
"<  c #1F2020",
"1  c #222222",
"2  c #292525",
"3  c #2E2929",
"4  c #302626",
"5  c #382322",
"6  c #312827",
"7  c #3D2C24",
"8  c #332C2C",
"9  c #392E2D",
"0  c #37312E",
"q  c #3A302E",
"w  c #3D3333",
"e  c #5A2A07",
"r  c #4E2D1A",
"t  c #592D10",
"y  c #5B381C",
"u  c #642702",
"i  c #6C3006",
"p  c #6C320A",
"a  c #773000",
"s  c #7E3300",
"d  c #743009",
"f  c #79350E",
"g  c #6F3C12",
"h  c #743D14",
"j  c #41352D",
"k  c #493528",
"l  c #423736",
"z  c #443837",
"x  c #493B34",
"c  c #463A39",
"v  c #483B3A",
"b  c #4F403E",
"n  c #5B4A34",
"m  c #52423E",
"M  c #5C4B3F",
"N  c #6A4C2D",
"B  c #6D5335",
"V  c #745533",
"C  c #785231",
"Z  c #554441",
"A  c #594743",
"S  c #5D4945",
"D  c #604C47",
"F  c #634D49",
"G  c #655346",
"H  c #67504B",
"J  c #6C544E",
"K  c #6F5650",
"L  c #705751",
"P  c #765B54",
"I  c #795E56",
"U  c #7B5F58",
"Y  c #746351",
"T  c #7C6956",
"R  c #7D6059",
"E  c #823407",
"W  c #8D4716",
"Q  c #B75917",
"!  c #D16C23",
"~  c #D46F28",
"^  c #CF712D",
"/  c #D97026",
"(  c #D6722A",
")  c #E57621",
"_  c #E97925",
"`  c #886542",
"'  c #896E53",
"]  c #8D7054",
"[  c #BF7D45",
"{  c #BD8F5D",
"}  c #A1856A",
"|  c #B18F6E",
" . c #AC8D71",
".. c #B39475",
"X. c #BE9D7B",
"o. c #DA874A",
"O. c #DF8A48",
"+. c #DE9355",
"@. c #D0935B",
"#. c #E4904F",
"$. c #E39A5C",
"%. c #EA9A5B",
"&. c #D39C63",
"*. c #DC9F64",
"=. c #C19E7C",
"-. c #D8A066",
";. c #DCA46C",
":. c #C3A07F",
">. c #E2A66B",
",. c #E2AB71",
"<. c #CBA785",
"1. c #CEA987",
"2. c #EAB384",
"3. c #E8B887",
"4. c #E7B789",
"5. c #ECBC8C",
"6. c #EFBF92",
"7. c #F5C394",
"8. c #F7C79D",
"9. c #F9C69D",
/* pixels */
"1 1 1 < @ @ @ @ 2 w c c w 2 @ @ , < , @ < < @ < 3 w v Z c c v Z v l 8 , 1 0 c c w 2 , , , , , O o o ",
"1 1 1 1 1 1 < 1 2 w c c w 2 , , < 1 1 1 < < < < 8 w c v c c c c v l 8 2 2 q c c w 3 , , , , , , 1 , ",
"< 1 2 2 8 3 3 3 0 l c c w 8 3 3 3 3 3 8 3 3 3 3 0 w v c Z v c v v c q 8 8 w c c w 0 2 2 8 8 q w c v ",
"@ # 2 8 w l w w w c v v z w w w w w w w w w w w w c v Z c v c v v c l l w l c c c w w 0 q l v A D F ",
"@ < 3 w z v v v v v v v v v v v v v z z v c w v c c v v c c v v v v c v c v v v v c v c l v A J L P ",
"3 3 0 l v v b v v v v v v v v v b v Z v v v Z v v v v v c c v v v v v v v v v v v v v v c b F K U ' ",
"w w l c v v v v v v v v v v v v v v v v v v Z v Z c v v v v v v v v v v v v c v v v v c l v F K U U ",
"c z v v v v v v v v v v v v v v v v v v v v c c c c c v v v v c v v v v v v v v v v v c l v S K P U ",
"v b v v v v v v v c v v v v v c v v v v c v v v c v v c v v v v v v v v v v v v v v c c c v S J P U ",
"v v v v v v v v v v v v v c v v v c v v v v v v v v v v v v v c v v c v v v v v v v c c l v S K P U ",
"v v v v v v v v v v v v v v v v v v v v v v c v v v c v v c v v c v v v c v v c v v v c l v A K P I ",
"c c v v v v v v v v v c v v v c c v c v v v v v v v v v v v v v v v v v v v v v v c c c c v S K P U ",
"8 0 w l c v v v v c v c v v v v v v v v c c v v v v v v v v v c v v v c c v v v v v v c l v F J P U ",
"1 2 8 w c v v v v v v v v v v v v v c v c c v v c v v v v v v v v c v v v v v v v v c c c v S K P U ",
"< 1 8 w v v v v v v c v v v v c w + X . . X 0 v v v v c v v v v v v v c v v v c v v c c l v S J P U ",
"8 0 w l v v v v v v v v v c v l w } .. ... .A 0 v v v v v c v v v v v v v v v v v c v c l v S K U U ",
"l c c c v v v v v v c v c c j k ` 4.7.7.7.6.| M w c v v v v c v v v v v v v v v v v c c l b F K U R ",
"v v v c v v v v v v v v c c * B ;.;.*.&.&.-.7...* l c v v v v v v v v c v v c v v v c c l v A J P P ",
"w l l c v v v v v c v v c v * V ,.7.] $ N &.9...* z c v v v v v v c v v v v v v v v v c c v Z F F H ",
"3 3 q l v v v v v v v v v c * h O.8.Y   ; *.7...- l v v v c v v v v v c c v v v c v v v v v v v b Z ",
", , 6 w v v v v v v c v v c + s _ 2...T ] ,.7. .* c v v v c v v v v v v c v v v v v c v v v v v v v ",
"O , 3 w v v v v v v v v v v - p ! +.2.8.6.,.5.=.j 9 v c v v v v v c v v v v v v v v v c c v b Z A S ",
", 1 3 w v v v v v v v v v v l j t ! ) O.;.-.-.3.<.x 9 v v v v v v v v c v v v c v v v c l v S H L L ",
", 1 6 w v v v v v v c v v v x l 7 p a g N C ^ %.3.<.j 9 v v v c v v v v v v v v v c v c l v S K P U ",
", , 3 w v b v c c v v v v c v v v * + + * & E ^ %.5.X.m 8 v v v v v v v v v v v v v v v v v A H K L ",
"O , 2 w c v v v v v v v v v v v v v v v z z : d ~ $.7.=.n 8 v v v v c v v v v v v v v l v v v Z Z A ",
", , 3 w c b v v v v c v v v v v v v v v v v v = f / $.5.:.j l c c v v v c v v c v v v v v v v v v c ",
"3 3 q l c v v v v v v v v v c v v v v v v v v z : e / $.3.1.j q v v v v v v v v v v v v c v v Z Z Z ",
"w w l v v v v v c v v v v v v v v v v c v v v v z 5 u [ ,.5.:.G 6 v v v v v v v v c v l c v Z S H H ",
"c c c v v v v v v v v v c v v c v v v v v v v c z 0 n { $.$.7.] @ c v c v v v c v v v v v v S J P I ",
"v b v v v c v v v v v v v v v v v v v v v c v l r y @.>.o./ @.B 1 v v v c v v v v v v l l v S L U R ",
"b v v v v v v v v v c v v v v v v c v v v v v 1 i ~ >.#.Q % ; q l v c v v v v v v v v c l b S L R R ",
"v v v v v v v v v v v v v c v v v v v v v v v l r W ( ^ e 4 4 l v v v v c v v v v v v c l v S L U U ",
"l l c v v v v c v v v c v v v v v v c v v v v v l > E y 6 v v v v v v v v v v v v c v c l v A H L L ",
"8 0 w l v v v v v v v v v v v v c v v v c v v c v l $ = c v v v v v v v v v v v v v v c v v Z A F F ",
"1 2 8 w v v v v c v v v v v v c v v v v v v v v v v v c v v v v v v v v v v c v v v v c v v v v b b ",
", , 3 w c v v v v v c v v v v v v v v c c v v v c v v c v v c v v v v v v v v v v v v v v v v c c l ",
", , 3 w v v v v v v v v c v v v v c v v v v v v v v v v v v v v v v v c v v v v v c v v v v c l w w ",
", , 3 w c Z c v v v v v v v c v v v v c v v v c v v c v v c v v v v v v c v v c v v v v v v c c w c ",
", , 3 w c v v v v c v v c v v v v v v v v v v v v v v v v v v v c v v v v v v v c v v v v v v v b b ",
"< < 8 w c b v v v v v v c v v v v v v v v v v v v v v v v v c v v v v v v v v v v v c c c v Z S F F ",
"< < 3 w c v v v v v v v v v v v v v v c v v v c c v v c v v v v v v v v v v v v v v v c z v A H L L ",
"< < 3 w v v v v v v v v v v c v v c v v v v v v v v c v v c c v v v v v v v v v v c v l z v S K I R ",
"o , 2 0 c v c v c c c v v v v c c c c v c c c c c c c c c c c c l l v v v l v l c c c l w c S K I R ",
"o o < 0 l v c w c v v v v v v c c l c c v c c c l c l l c l l c l c c v v c l l c l l w w c A K I I ",
"1 2 0 l v v v b v v v v c v v v v v v c v c c v v v v v v v v v b v v v v v v b v v v c c b S K I I ",
"v v b A S S S S A Z v v c c v Z A S A v v b Z S S S D S A S S S S A b v v Z S S S S S S S S H K P I ",
"K H H J K K K K H A v c w c b S J J F b c Z F K L K K K K K K K L H A v v S H K K K K H K K K P P I ",
"I I P P I I I I L F b l l l b F P P J b c A J I I I P P P I I I I L S v b S L R I I P I P P P P P I ",
"U U U I I U U U L F b l w l b H P U J b v S K I U U U I U I U U R L S b b F P R R I I I U I I I P P "
};
