/* XPM */
static char *d387e6900d3d40a6f6d258ea2e5bd6cdRhyLXuhfxnsrdK9D[] = {
/* columns rows colors chars-per-pixel */
"50 50 190 2 ",
"   c #000C11",
".  c #000C19",
"X  c #001215",
"o  c #021519",
"O  c #001B1D",
"+  c #0C191A",
"@  c #151C1D",
"#  c #1B1E1F",
"$  c #26171D",
"%  c #23191D",
"&  c #311D1E",
"*  c #34221D",
"=  c #001621",
"-  c #001E22",
";  c #141F20",
":  c #1E1E22",
">  c #2D1D20",
",  c #3A1722",
"<  c #361A21",
"1  c #0A2022",
"2  c #012429",
"3  c #002529",
"4  c #152022",
"5  c #1D2121",
"6  c #232222",
"7  c #292524",
"8  c #252D2E",
"9  c #2E2929",
"0  c #322423",
"q  c #3C2524",
"w  c #3D2822",
"e  c #332C2C",
"r  c #3F2F2E",
"t  c #36312E",
"y  c #3B312E",
"u  c #362F30",
"i  c #293234",
"p  c #2E3438",
"a  c #323232",
"s  c #3D3433",
"d  c #32373A",
"f  c #383639",
"g  c #35383B",
"h  c #3B3A3C",
"j  c #440D1F",
"k  c #4E240F",
"l  c #4D2A1D",
"z  c #522A17",
"x  c #532C1B",
"c  c #582D1A",
"v  c #5D311F",
"b  c #763B1E",
"n  c #440F21",
"m  c #590F27",
"M  c #431625",
"N  c #4B1D29",
"B  c #5A1026",
"V  c #501A27",
"C  c #5C1B2B",
"Z  c #412723",
"A  c #442923",
"S  c #4B2B22",
"D  c #4F2128",
"F  c #542E23",
"G  c #592C24",
"H  c #54252A",
"J  c #512C2F",
"K  c #5F2C29",
"L  c #533124",
"P  c #5A3221",
"I  c #5C2230",
"U  c #522A30",
"Y  c #423636",
"T  c #4D3031",
"R  c #443837",
"E  c #493B37",
"W  c #413738",
"Q  c #453939",
"!  c #493C3B",
"~  c #573C37",
"^  c #5A3E38",
"/  c #64262E",
"(  c #732F2B",
")  c #643324",
"_  c #693326",
"`  c #6A3923",
"'  c #633C2E",
"]  c #733626",
"[  c #783727",
"{  c #763D23",
"}  c #7A3D24",
"|  c #75312D",
" . c #602431",
".. c #642C34",
"X. c #603135",
"o. c #693137",
"O. c #6A3138",
"+. c #61383B",
"@. c #673C39",
"#. c #4F403E",
"$. c #52413E",
"%. c #7C4024",
"&. c #654137",
"*. c #6B4133",
"=. c #64423A",
"-. c #6E463A",
";. c #7B4632",
":. c #74493B",
">. c #474342",
",. c #4C4241",
"<. c #544341",
"1. c #594743",
"2. c #514846",
"3. c #5D4945",
"4. c #564C4B",
"5. c #5A4D4B",
"6. c #604642",
"7. c #6D4343",
"8. c #624B46",
"9. c #6E4946",
"0. c #634E49",
"q. c #6A4E4A",
"w. c #724A46",
"e. c #784F41",
"r. c #714948",
"t. c #67514C",
"y. c #6B544E",
"u. c #7B5245",
"i. c #775248",
"p. c #71544E",
"a. c #665652",
"s. c #6E5650",
"d. c #665855",
"f. c #6A5955",
"g. c #715751",
"h. c #755B54",
"j. c #795D56",
"k. c #735E58",
"l. c #7B5F58",
"z. c #7D6059",
"x. c #823E26",
"c. c #853C29",
"v. c #8B3F28",
"b. c #8A431C",
"n. c #97481B",
"m. c #9D4B1B",
"M. c #A14C16",
"N. c #A14D1C",
"B. c #AB531F",
"V. c #BF5C1F",
"C. c #8E4523",
"Z. c #8E4029",
"A. c #9C4D24",
"S. c #914129",
"D. c #924C2D",
"F. c #9F4A28",
"G. c #9C502A",
"H. c #89513D",
"J. c #975134",
"K. c #A04F24",
"L. c #A05027",
"P. c #AE5624",
"I. c #A2542F",
"U. c #B15625",
"Y. c #B45825",
"T. c #BD5C24",
"R. c #B85D2F",
"E. c #A85934",
"W. c #A65C3C",
"Q. c #A85B3A",
"!. c #B25C32",
"~. c #B2613E",
"^. c #C45D1C",
"/. c #C25E22",
"(. c #C25F28",
"). c #C66025",
"_. c #CA6224",
"`. c #C3612C",
"'. c #C8632A",
"]. c #C36332",
"[. c #845A4E",
"{. c #895C4D",
"}. c #975C47",
"|. c #855E53",
" X c #8A5F51",
".X c #A85E41",
"XX c #9B614E",
"oX c #8C6154",
"OX c #AA6245",
"+X c #B16241",
/* pixels */
"6 6 6 # # # @ @ 7 s Q Q u 7 @ @ # # # 5 # # @ # e s ! ! ! Q ! ! ! W e 6 6 u Q ! s 6 # @ % # # @ o o ",
"6 6 6 6 6 6 # # 9 r Q Q u 9 # : > 5 6 5 6 # # 6 e s ! ! ! ! ! ! ! Y e 6 7 u Q E s 9 # : 5 5 5 5 5 5 ",
": 6 6 9 9 e e 9 e Y Q ! Y e 9 9 9 9 e 9 e 9 9 9 e Y E ! ! ! ! ! ! R s e e s Q Q Y e 9 9 e e e Y E E ",
"@ # 7 e s s s s Y W ! Q Q s s s s s s s s s f s Y R ! ! Q ! Q ! Q Q Y s s Y Q E Y s s s y Y ! 3.8.q.",
"# 6 9 s R ! ! E Q ! ! ! ! ! Q Q E Q Q ! Q Q ! Q Q E Q ! ! ! Q ! Q ! Q ! Q Q ! Q E E ! W W ! 1.t.h.j.",
"7 9 e Y ! ! ! ! ! ! ! Q ! ! ! ,.! ! ! ! ! ! ! ! ! ! ! ! Q ! Q ! ! ! ! ! ! ! ! ! ! ! ! Q Q ! 8.g.z.z.",
"s s Y Q ! ! ! ! ! Q ! ! Q ! ! ! ! ! ! ! ! ! ! ! ! ! ! Q ! Q ! ! ! Q ! ! ! ! Q ! ! ! ! Q Q ! 8.s.j.z.",
"R Q Q Q ! ! ! ! ! ! Q Q ! ! Q ! ! ! ! ! ! ! ! ! Q ! ! Q ! ! ! Q ! Q ! Q ! ! ! Q ! Q ! Q W ! 3.s.h.j.",
"! #.! ! ! Q ! ! ! ! Q ! E Q Q Q ! ! Q ! ! Q Q ! Q ! Q Q ! Q ! Q ! Q Q ! R Q ! ! ! Q Q E R ! 3.s.j.z.",
"! ! ! ! E ! ! Q Q ! ! Q h g d g W W W W W Q W W Q W Q W W Q W W R R f d d h Q ! ! ! ! R W ! 3.y.h.j.",
"! ! ! ! ! Q ! Q ! ! ! Q h g d h W W Q W W W Q Q Q W Q Q Q Q Q W E R f g g R Q ! ! Q ! R R ! 3.s.j.j.",
"R Q Q Q ! Q ! ! Q Q Q ! ^ &.&.=.<.$.#.$.$.$.,.2.#.#.#.#.#.,.#.~ $.$.$.&.&.$.! Q R ! ! R R ! 3.y.h.j.",
"e t s Y Q Q Q Q W f f ~ ;.D.J.H.w.0.5.5.5.5.5.5.5.5.5.5.5.5.5.5.5.w.H.J.D.;.~ f f Y Q Y W ! 3.s.j.j.",
"6 7 e s E E Q W f p d &.D.U.R.W.{.k.f.f.d.d.d.d.f.f.f.f.d.d.d.d.s.[.W.R.Y.D.&.p p h W Y s #.3.y.h.j.",
"5 6 e s Q ! #.#.#.h h 7.I./.'.~. Xf.k.|.|.|.|.|.|.|.|.|.|.|.|.k.j.oX+X'./.I.-.h h #.#.! R ! 3.y.j.j.",
"e u s s W #.<.8.0.4.5.i.Q.(._.E.e.8.i.}.OXOXOXOXOX.XOXOXOX.XXX Xz.oX+X).(.E.i.4.4.0.0.<.Q E 1.s.j.z.",
"R W Q s s #.3.t.f.d.f.{.OX].T.A.' Y ;.!.].].].].].].].].`.].~.XXz.oXOX`.(.W.j.y.f.k.p.8.#.Y $.y.j.l.",
"Q #.Q Q #.1.y.z.z.z.f.{.W.`.^.n.l % b B.^._.).^./.T./.^.^.^.!.}.g.[.W.(.`.W.oXf.k.j.g.y.$.#.3.y.h.h.",
"s s E $.3.s.g.z.j.a.5.u.W.`.T.n.x o c b.N.N.N.m.m.m.m.m.M.m.D.:.3.u.I.(.`.OXoXz.s.t.8.3.8.8.t.t.0.0.",
"6 7 E 3.s.z.z.f.g.2.g ' G.T.).m.P = ; l P P P v P P P P v x L t a *.L.T.].OXoXj.5.! Y 1.y.h.y.8.#.#.",
"o 5 E 8.g.l.oXz.y.h 3 x n.T./.K.) - = 5 6 7 6 7 7 7 6 7 6 7 4 o o P m.^.].OX Xa.>.8 5 #.y.h.y.$.! W ",
"o # y $.y.g.l.z.s.h 3 k n.T._.A.P - w ` } %.} { b } } } %.%.` * X P m./.`.W.u.2.g ; @ s $.t.t.8.3.1.",
"# 5 7 t Y $.s.l.s.>.3 z n._./.A.P 6 ` A.Y.T.Y.U.U.U.U.Y.T.Y.A.` 5 x A.).).I.*.i 3 5 5 7 Y E $.t.g.g.",
"6 6 # o @ Y 0.j.s.#.3 x n.T.(.F.L 7 %.P._._.).).).).).)._.).P.} 7 S A.).T.A.G = = ; 6 @ X 7 $.y.j.l.",
"6 # ; X X e $.8.8.f 3 l b.U.U.v.S 7 ` A.U.Y.U.P.P.P.P.U.Y.U.A.` 6 S C.U.U.C.l . o 4 6 +   # Y 3.s.g.",
"# # # @ @ 9 Y E R 8 3 l } L.F.x.S 4 A ` %.} { } b %.{ } %.{ ` l 5 S c.L.F.} S o = 5 6 @ + 6 t $.3.8.",
"7 6 6 6 6 6 7 6 5 3 - Z ] v.v.] S 1 - 6 6 6 7 6 6 6 7 6 6 7 5 3 1 S ] v.v.] Z - 3 5 6 % # 6 e s ! ! ",
"e 9 7 6 # @ + o o O - A _ c.v.] A 4 : 0 q Z q q q q q q Z q * ; 4 A ] x.c._ Z - - 5 6 # # # 9 s s R ",
"s s t 6 + o + @ @ - - A _ v.v.] A 6 A _ [ [ [ [ [ [ [ [ [ [ _ S 6 A ] Z.v.] x 2 2 6 5 @ o + 7 e W W ",
"#.R s 7 # @ # 6 5 3 - A ] v.Z.] w 6 G } S.S.S.Z.v.Z.Z.S.S.S.} G 6 w ] v.v.` q - O 5 6 # @ # e s Q ! ",
"#.#.#.#.Y Y 9 7 @ O O Z _ c.c.) q 7 F [ c.v.c.x.c.c.c.c.v.c.[ F 7 q _ c.v._ * - O @ 6 9 r R ! <.1.1.",
"R E $.3.-.$.Y #     o & H ( | K q 6 w G ) ) ) ) ) ) ) ) ) ) G w : q / ( ( H & o     # Y 1.0.t.s.t.t.",
"R E 1.s.h.t.$.7   X O & D / / H 0 : 5 7 0 0 9 7 0 0 0 0 < 7 7 5 5 0 H  . .V < o X   6 $.y.z.z.g.h.h.",
"s h $.y.h.s.3.R t e t T J I C N > : ; : : > : > : : : : : : : ; 5 0 N C I U Y s t e E $.y.g.h.h.h.h.",
"9 t E 1.0.t.0.8.8.8.3.8.+.I m M $ o > , , M M M , M M M M M , > + $ n m  .+.6.5.8.3.8.8.0.t.t.0.t.0.",
"6 7 t s ! 3.t.g.h.j.j.y.7...m j : ; < V C C C C C C C C C C V < @ $ n B ..7.p.h.z.h.g.t.$.#.E #.! $.",
"@ 5 7 9 h <.0.h.j.j.j.g.r.@...U A s T K O.O.o.o.O.O.O.O.O.O.X.T e Y J K @.r.g.j.z.j.g.t.$.W s s W Y ",
"# # 7 e Y $.1.0.a.t.t.q.9.9.9.9.3.6.8.9.w.w.r.w.r.r.r.r.r.r.9.7.6.1.9.7.r.q.t.t.t.t.t.1.$.W s W s Y ",
"# 6 9 s Q ! $.<.$.~ <.<.0.g.h.h.g.g.g.h.h.h.g.h.h.h.h.h.i.h.h.g.g.h.h.j.h.q.<.#.#.#.<.#.! ! E W Q W ",
"# 6 e s Q ! Q Q W f Y ! 8.s.j.j.j.h.j.j.g.h.j.h.h.h.h.h.j.h.h.h.j.h.j.h.s.8.#.s s W R R E Q ! #.! $.",
"; 5 9 s Q ! Q Q W Y W ! 1.0.a.t.q.t.t.a.t.t.t.t.y.t.t.t.t.y.y.t.t.t.a.y.0.1.! W s R R Q R ! <.3.5.0.",
": > e s Q ! ! ! Q Q Q ! ! <.<.<.<.<.<.<.<.<.<.<.<.<.<.<.$.$.<.<.<.<.<.<.<.! ! Q Q Q Q Q R ! <.t.s.h.",
"# 6 9 s ! ! ! E E Q ! ! Q Q Q Q Q Q Q Q Q Q Q Q R R R R R Q R R Q Q Q Q Q Q Q E ! ! Q Q R ! 3.s.j.j.",
"+ @ 9 u Q Q Q Q Q ! ! Q Q Q Y W Y f s W Y Y Y s f s Y h s s Y Y s Y W W W R Q Q Q Q Q Y s Q 3.s.j.z.",
"X o 7 e W Q W Q W Q Q ! E Q Q Q R f Q ! E Q R Y W R Y Y W W Y W Y W Q Q Q Q W Q W Q W s f E 1.s.j.j.",
"6 7 e Y ! #.! ! ! ! ! ! ! ! ! ! ! ! ! E ! E ! ! ! ! ! ! ! ! ! ! ! ! ! E ! ! ! ! ! ! ! E Q ! 3.s.j.j.",
"! ! $.1.1.3.3.3.1.<.! E Q Q ! <.1.3.<.! Q #.<.3.3.3.3.3.3.3.3.3.3.1.<.! ! <.1.3.8.3.3.3.1.3.q.g.h.j.",
"y.t.t.y.s.s.g.s.t.1.! Q W Q ! 3.q.s.0.#.! <.t.y.g.g.y.s.s.y.s.y.s.0.1.! ! 1.t.s.s.s.s.t.s.s.s.h.j.j.",
"j.j.j.j.j.j.j.j.p.8.$.W s W #.8.h.h.y.$.! 1.y.h.j.j.j.j.j.h.j.j.j.g.8.! ! 8.g.j.j.j.j.j.j.h.j.h.j.h.",
"l.l.l.j.j.j.z.l.h.8.#.W s R $.t.h.j.y.$.! 1.y.z.z.z.j.j.j.j.z.z.j.h.5.! #.0.h.z.z.j.j.j.j.j.j.j.h.j."
};
