/* XPM */
static char *c32bdd0032944f92901b3b74564137c1gcO2m7ZJfXK2cLoN[] = {
/* columns rows colors chars-per-pixel */
"50 50 179 2 ",
"   c #0C0806",
".  c #0D0A0C",
"X  c #001115",
"o  c #041618",
"O  c #0D191B",
"+  c #161C1C",
"@  c #1B1E1F",
"#  c #290912",
"$  c #370B1B",
"%  c #231B19",
"&  c #3E1D1B",
"*  c #26221F",
"=  c #1D1F20",
"-  c #000039",
";  c #001431",
":  c #231F22",
">  c #381222",
",  c #3A1623",
"<  c #0B2426",
"1  c #162223",
"2  c #1F2121",
"3  c #1A2529",
"4  c #1C2828",
"5  c #112A3A",
"6  c #222322",
"7  c #2A2525",
"8  c #2E2727",
"9  c #222927",
"0  c #24212A",
"q  c #222929",
"w  c #2D2A2A",
"e  c #322624",
"r  c #3F2226",
"t  c #35242C",
"y  c #3A242B",
"u  c #332C2C",
"i  c #3A2E2C",
"p  c #2C312D",
"a  c #2F3C2D",
"s  c #37302F",
"d  c #39302E",
"f  c #292E31",
"g  c #2A2F3B",
"h  c #302330",
"j  c #322F31",
"k  c #2E3132",
"l  c #2B323B",
"z  c #333232",
"x  c #3D3333",
"c  c #32333E",
"v  c #43231D",
"b  c #6B2A1C",
"n  c #71311F",
"m  c #431322",
"M  c #5A1A2A",
"N  c #681C2E",
"B  c #671631",
"V  c #651C31",
"C  c #42242A",
"Z  c #4B2A28",
"A  c #55242C",
"S  c #5B232D",
"D  c #562C2A",
"F  c #413429",
"G  c #49312A",
"H  c #54322A",
"J  c #5C322A",
"K  c #423736",
"L  c #443837",
"P  c #4A3C35",
"I  c #463A39",
"U  c #483B3A",
"Y  c #523634",
"T  c #6A2A27",
"R  c #64232F",
"E  c #732D2A",
"W  c #6E3322",
"Q  c #633528",
"!  c #6B352B",
"~  c #7A3927",
"^  c #773729",
"/  c #74322D",
"(  c #7B3928",
")  c #632430",
"_  c #294D39",
"`  c #304C39",
"'  c #3A4938",
"]  c #315137",
"[  c #366E35",
"{  c #307036",
"}  c #42562F",
"|  c #4F403E",
" . c #52423E",
".. c #5A443B",
"X. c #6A4134",
"o. c #7E6E35",
"O. c #737D39",
"+. c #0D1246",
"@. c #1B1B4A",
"#. c #2D2C4C",
"$. c #2D3645",
"%. c #2E3A48",
"&. c #313E4D",
"*. c #2F3250",
"=. c #273855",
"-. c #303653",
";. c #303D53",
":. c #365B4F",
">. c #324153",
",. c #334559",
"<. c #3C744E",
"1. c #3C7D4F",
"2. c #3B7D50",
"3. c #554441",
"4. c #594743",
"5. c #5D4945",
"6. c #4B4054",
"7. c #58485D",
"8. c #604C47",
"9. c #634D49",
"0. c #67504B",
"q. c #6C544E",
"w. c #6F5650",
"e. c #705751",
"r. c #765B54",
"t. c #795E56",
"y. c #7B5F58",
"u. c #456649",
"i. c #507C44",
"p. c #7D614D",
"a. c #7D6059",
"s. c #604F60",
"d. c #962E27",
"f. c #813222",
"g. c #893726",
"h. c #883A25",
"j. c #843A2A",
"k. c #8A3C2B",
"l. c #953B2C",
"z. c #9D3F31",
"x. c #8F4029",
"c. c #924127",
"v. c #924129",
"b. c #89532E",
"n. c #855D2F",
"m. c #8B592F",
"M. c #AF4231",
"N. c #8D725B",
"B. c #8C7367",
"V. c #977A63",
"C. c #967B76",
"Z. c #65853C",
"A. c #3DAF4A",
"S. c #479F4B",
"D. c #46A646",
"F. c #4CAA46",
"G. c #4AAE48",
"H. c #55A544",
"J. c #53A946",
"K. c #A3856D",
"L. c #AA8C7A",
"P. c #B78E73",
"I. c #B89479",
"U. c #B79680",
"Y. c #CBA789",
"T. c #D3AB8B",
"R. c #DBB28E",
"E. c #D5AF90",
"W. c #DDB494",
"Q. c #E2B592",
"!. c #E3BA96",
"~. c #E5BA98",
"^. c #EBBE9A",
"/. c #EEC19B",
"(. c #F1C39D",
"). c #F6C7A1",
"_. c #FCCCA4",
"`. c #FED0A7",
"'. c #FFD3AA",
/* pixels */
"6 6 6 2 @ @ + + 7 x I I x 6 @ + @ @ @ @ @ @ + @ w x U U U U U U U L u : 6 u I U x 7 + + @ @ + O o o ",
"6 6 6 6 6 6 @ @ w x I I x 7 @ @ = 6 6 6 6 2 @ 6 u x U U U U U U U L u 9 6 x L U x 8 = @ 6 6 6 = = 6 ",
"@ 6 6 7 u 8 w w u K U I K u u 8 8 u w u w w w w s K U U U U U U U I x t u x I I x i w 8 8 w i K L P ",
"@ @ 7 u x K x x x I U I K x x x x x x x x x x x K I U U U U U U I I x K x K U U K K x x x K U 4.9.0.",
"@ @ w x L U U U U U U U U U U I I I I U I I I U I U U I U U U U U U I U L U U U I I U L K U 4.w.r.r.",
"7 w i L U U U U U U U U U U U U U U U | | U U | U U U U U U U U U U U U U U U U U U U U I U 8.e.y.a.",
"x x L I U U U U U U U U U U U U U U U U U U U U U U U U U U U U U U U U U U U I U U U I I U 8.w.y.y.",
"I I U U U U U U U U I U U U I I I L L L L U U U U U U U I U U U U U U U U U U U U U U I L U 5.w.r.t.",
"U U U U U U I U U U U U U I s w q q q q j L U U U I U I U U U U U U U U U U U U U U U I L U 4.w.r.y.",
"U U U | U U U U U I U U U I 9 e C C C C y z k z k k k k f z K I U U I U I U I U U U U L L U 5.w.r.y.",
"U U U U U U U U I U I U U I q C S ) R T A e e e e e e e e e x L U U U U U U I U U U U L K U 4.w.r.t.",
"I I U U U U U U U U U U U I 4 C ) / j.j.j.~ ( ( ~ ~ ~ ~ ~ ^ H i z U U U U U U U I U U U L U 5.q.r.y.",
"u s x K L U U U U U U U I L j y A T ( v.c.c.v.v.v.c.v.c.c.x.J i f U U I I U U U U U U L L U 9.w.r.y.",
"6 6 u K U U U U U U U U U U x u C D / k.c.l.c.c.c.c.c.k.l.c.J i f U U U U U U I U U U L L U 5.w.r.y.",
"6 6 u x U U U U I U U U U U U p h y ) E n n n W W W n n n n v i f U U U U U U U U U U L K U 4.w.r.y.",
"u s x K I U U U U U U I U U I j u C S $ . . . . . . . . . . * 8 x U U I U U U U U U U L L U 5.w.y.a.",
"L L L U I U U U I I U U U U U p 7 , V I.E.R.R.R.T.Y.Y.Y.R.T.N.P 7 P U U U U U U U U U L L U 8.w.y.y.",
"U U U U U U U U I x x L U U U j 7 > B Q.`.~.W.^.).`.`.`._.Q.B.P * U U U U U U I U I U L L U 5.w.r.r.",
"x x K I U U U U I i i K U U U j 7 , B Q.W.=.@.C.T.`._.'.W.,.5 q s U U U U U U U U U U L L U 3.8.9.0.",
"8 w u K U U U z J k.z.! z L s 9 : $ B Q.W.+.- B.Y.`._.`.T.@.; 0 s U U U U U U U U U U U U U U  . .3.",
"@ = w x U U U z D l.M./ 3 x j 9 : $ B Q.~.7.6.L.T.`.(.`.W.s.$.w i P I I U U U U U U U U U U U U U U ",
"+ = 8 x U U U c Y / ( H 1 u x p : > B Q.).U.L.T.~.`.`.`./.U.r.F 7 I I U U I U U U U U U L U U 4.4.5.",
"= % u x U U U U K f < < 8 p x x y m B I.~.^.(.(.(.`.`._.(./.V.P % L I U U U I U U U U L L U 4.9.e.e.",
"= 6 w x U U U U U U x q s L w C S ) M # K.)._._._._.(.`.`.(.K.d . u L U U I U U L U U L L U 5.w.t.t.",
"+ 2 w x L U U U U I I x z x 2 r S R N $ X.K.V.Y.!.'.'.'./.K.n.! C 1 I U U I U U U U U I I U 3.0.w.w.",
"+ = w x U U U U U U U L K q 1 C S M N R M #   p.P.Q.R.!.I.% b j.Q < I U U U U I U U I I I U | 3.4.4.",
"= 2 w x U U U U I U U U L K 6 C S R R S T n n ^ X.z x z X.n k.j.D < K U U I U U I U U U U U U U I U ",
"w w u K U U U U U U U I U I z y Z P ..R B E d.~ b & r & b g.j.! G g U U U U U U U U U U I U U | 3. .",
"x x K I U U U U U I U U U U L y i ' u...M N ( k.h.f.f.f.h.k.Q G C I U U U U I U U U U I I U 3.8.9.w.",
"I U I U U U U U U U U U U U U t w _ <.i.Z.Z.Z.o.m.d.l.d.m.O.} p h U U U U U U U I U U I K | 5.q.r.r.",
"U U U U U U U U U U U U U U U t w ` <.D.G.G.A.Z.O.b.m.b.Z.D.{ a h U U I I U U U U U I I K U 5.w.t.y.",
" .U U U U U U U I U U U U U U y f ` <.S.G.G.G.J.H.H.H.H.H.F.[ a h U U U U U I U U I U I I U 5.w.r.N.",
"U U U U U U U U U U U U U U U i f ` :.<.2.i.2.2.2.2.2.2.2.1.] j y I U I U U U U U U U I K U 5.w.t.y.",
"I K I I U U U U U U U U I U I i w l -.-.=.#.#.#.#.#.#.*.-.-.g w i I U U U I U I U U U I L U 4.0.e.e.",
"u u x K U U U U U U U I U U U i w l ;.;.#.0 0 0 0 0 3 $.;.&.l w s U U U U U I U I U U I I U 3.4.9.9.",
"6 7 u x U U U U I U U U U U U u w l >.&.l w w u w 8 : %.>.$.l u K U I U U U U U U U U I I U U | |  .",
"@ 2 w x L U U U U U U U U U I s w l &.$.t K K K K i * %.&.f x K L P U U U I U U I U U U U U I I L K ",
"+ @ 8 x U U U U U I U U U U I x w f l z i L U U U x 9 l l i K U U U U U U U U I U U U U U U I L K c ",
"= 6 w x U U U U U I I U U U U x w 6 * x U I I U I x 6 6 8 L U U U U U I U I U U U U U U U U I L x I ",
"@ 6 u x U U U U U U U U U I U I U U U U U U U U U U U U U P U U I U U U U U U U U U U U U U U U | | ",
"= 6 u x U | U U U U U U U U U U U U U I U U U U U U U U I U U U U U U U U U U U I U U L I U 3.5.5.0.",
"= 2 u x I U U U I U U I U I U U U U U U U U U U U U U U U U U U U I U U I U U U U U U U K U 4.0.e.e.",
"= = w x U U U U U U U U U U I U U U U U U U U U I U U U U U U U U U U U U U U U U U U L x U 5.w.y.y.",
"O + 6 x K U I I I I U U I U U I K I I U I U I K L L I L L L I L K I I U U I I U L I L K x U 5.w.y.y.",
"X o 6 j I I I I I I U U U U I I K K U U U U I K K K K K K L K K x I I U U I K x K I K x x U 5.w.t.y.",
"6 7 u K U U U U U U U U U U U U U U U U U U U U | U U | U U U | | U U U U U U | U U U U U U 5.w.r.t.",
"P P  .4.4.5.5.5.4.3.U U I U U 3.5.5.3.U U | 3.5.5.5.5.5.5.5.5.5.5.4.| U U 3.5.5.5.5.4.4.4.5.0.w.r.t.",
"q.0.q.q.w.w.e.w.0.4.U L K I U 5.0.q.9.| U 3.9.w.w.w.q.w.q.w.w.e.e.0.4.U U 5.0.w.e.w.w.w.w.w.w.r.r.t.",
"t.t.t.r.t.t.t.t.e.9.U L K K  .9.r.r.0.3.U 4.q.t.y.t.t.r.r.t.t.t.y.e.5.U | 5.e.y.y.t.r.r.r.t.r.r.t.r.",
"y.y.y.t.t.t.y.y.e.9.3.L x K  .9.r.t.0.3.U 4.w.t.y.t.t.t.t.t.y.y.y.e.9.U | 9.r.y.y.y.y.t.y.t.t.r.t.r."
};
