/* XPM */
static char *_2d7b78785b44a59e3372af7141ef055kGKPIsqpsvGGWwze[] = {
/* columns rows colors chars-per-pixel */
"50 50 99 2 ",
"   c #001115",
".  c #031618",
"X  c #061619",
"o  c #0C181A",
"O  c #0E191B",
"+  c #151B1C",
"@  c #161C1C",
"#  c #171C1C",
"$  c #171C1D",
"%  c #181D1D",
"&  c #1C1F1F",
"*  c #1D1F20",
"=  c #1E2020",
"-  c #1F2020",
";  c #222222",
":  c #242323",
">  c #262423",
",  c #222324",
"<  c #262424",
"1  c #272525",
"2  c #282626",
"3  c #2A2726",
"4  c #2B2727",
"5  c #2C2828",
"6  c #2D2929",
"7  c #2F2A2A",
"8  c #302B2A",
"9  c #312B2B",
"0  c #342D2D",
"q  c #372F2F",
"w  c #38302F",
"e  c #393030",
"r  c #3B3333",
"t  c #3C3332",
"y  c #3D3333",
"u  c #3E3433",
"i  c #3F3534",
"p  c #3F3535",
"a  c #413533",
"s  c #413636",
"d  c #433737",
"f  c #433837",
"g  c #443837",
"h  c #483A36",
"j  c #433838",
"k  c #443838",
"l  c #463938",
"z  c #473A39",
"x  c #473A3A",
"c  c #473B3A",
"v  c #483B3A",
"b  c #493C3B",
"n  c #4A3C3B",
"m  c #4D3D39",
"M  c #4B3E3C",
"N  c #4C3E3D",
"B  c #4D3F3D",
"V  c #4F403E",
"C  c #52413F",
"Z  c #52423F",
"A  c #534240",
"S  c #544341",
"D  c #554441",
"F  c #584541",
"G  c #584643",
"H  c #594743",
"J  c #594744",
"K  c #5A4844",
"L  c #5D4945",
"P  c #5D4946",
"I  c #5D4A46",
"U  c #5F4B47",
"Y  c #604C47",
"T  c #614C48",
"R  c #634D48",
"E  c #624D49",
"W  c #654F4A",
"Q  c #66504B",
"!  c #67514B",
"~  c #68514B",
"^  c #6B534E",
"/  c #6D554F",
"(  c #6E554F",
")  c #6E5650",
"_  c #6F5750",
"`  c #715751",
"'  c #725852",
"]  c #735952",
"[  c #745A53",
"{  c #755B54",
"}  c #775C55",
"|  c #785C55",
" . c #785D55",
".. c #7B5F58",
"X. c #7C5F58",
"o. c #7C6058",
"O. c #7D6058",
"+. c #7D6059",
"@. c #7E615A",
/* pixels */
"; ; ; - & % $ % 4 r l l q 4 % + % * % - % % + * 6 r v M v v v M n s 9 ; ; 0 l l r 4 $ @ - & @ O X . ",
"; ; ; ; ; - - - 6 q b l q 4 & * ; ; ; ; ; ; * ; 0 s v N n v v v v s 0 > 1 w l n u 6 - % ; : ; - - - ",
"- ; : 4 6 8 6 6 0 i b l s 0 6 6 6 6 6 9 6 6 6 6 e s v v M l v n v l r 9 9 u g h a 0 6 6 6 8 e s g h ",
"% & 1 0 u u u r d d b c l i t t u s t u s r r i s l v v v M l v v l l r u f g n l s r r 0 s m S Y ~ ",
"% & 6 r l n c l l v l c g v v l l v l l l l l l l l v v v v v v v v l b d c b l g v l j f n P ) [ | ",
"4 6 r s n N M M b M N l N v N b n N M M M V b M N v v v v v v v v v v b b b b b n v n n g V K ] o.@.",
"t t s l n M n n M l l M g N b b n M n N l c M M M v v v v v v v v v v v b b b l v n n l f M U ) | @.",
"l l l v l l M l l M v h N g b b l v l l c M c c v v v v v v v v v b b v b b b b v v l l f M F ) | | ",
"M N v M b c b b l l b b b b l l v v v v v v v v l N v v v v v v b l b b b l b l l c n g l b J ) | | ",
"N v M v l M l b b b b l l b b b v v v v v v v v v l v v v v v v b b l b l b l b M n n f s v Y ^ | o.",
"M v n v b l l M b b b l l b b b v v v v v v v v v v v v v v v v b l b l b l b b l M n f l v U ) { X.",
"s l l l c c b l l l b b b b l l v v v v v v v v v v v v v v v v l b b b b b l b M l n j s M F ( | o.",
"0 q t s n n l b b b l b b l b b v v v v v v v v v v v v v v v v b l b l b l b l l M l j d M U ( | | ",
"; 4 9 u l n M n b l b b b b l b v v v v v v v v v v v v v v v v l b b b c M l M c l b l d b J ( } o.",
"& < 9 i l n c c b b l l l l b b v v v v v v v v v v v v v v v v b b b l b l b l M l b d s b P ) } o.",
"0 0 t s c M M l l b b b b b b l v v v v v v v v v v v v v v v v l b c b c b l M l v M j l v P ^ | @.",
"l l l l c l l M v v v v v v v v v v v v v v v v v v v v v v v v b b l l b b l b b b l l d M U ) ..o.",
"c l b v b M c c v v v v v v v v v v v v v v v v v v v v v v v v l b b b b l b b l b c l s v K ) ] } ",
"r s s l l b c c v v v v v v v v v v v v v v v v v v v v v v v v l b b b b b l l c b c l l M S U R Q ",
"6 6 q s l n N l v v v v v v v v v v v v v v v v v v v v v v v v b b l l l b b b b c b c l M v N A D ",
"$ * 6 s l n v v v v v v v v v v v v v v v v v v v v v v v v v v l b b b b b b l l b c b c b l M l M ",
"+ * 6 e v M M l v v v v v v v v v v v v v v v v v v v v v v v v b b l b l l b b l b b l l b V A K K ",
"% - 9 t l N v v v v v v v v v v v v v v v v v v v v v v v v v v b l b l b b l b b b b l d c D ^ ` ` ",
"- ; 9 t l N n v v v v v v v v v v v v v v v v v v v v v v v v v b l b b b l b b b l l l j M P ) [ ..",
"% ; 6 s l M v l v v v v v v v v v v v v v v v v v v v v v v v v l b b b l b b l b l M l j b D R ) ) ",
"+ & 6 t v M n v v v v v v v v v v v v v v v v v v v v v v v v v b b l b l b b l l M l l j c A A D J ",
"% ; 6 t l N n h v v v v v v v v v v v v v v v v v v v v v v v v b l b l b b b b M l l c n n M M M b ",
"6 6 q s l b M v v v v v v v v v v v v v v v v v v v v v v v v v b l b b b l l b c b n M j l l C A A ",
"r r r l l b b l v v v v v v v v v v v v v v v v v v v v v v v v b l b b b l l b c M l l l M A U Q ) ",
"l b v l N l M b v v v v v v v v v v v v v v v v v v v v v v v v b l b l b b b b b l M l d b U ^ [ [ ",
"N N b b l b l c v v v v v v v v v v v v v v v v v v v v v v v v b b l b l b b l c b l l d M U ` | @.",
"N N N b b c l M v v v v v v v v v v v v v v v v v v v v v v v v l b b b l b b l b c b d d b P ] @.@.",
"v v v l M l v v v v v v v v v v b l b b b l b b l l b b b b l l b b b l b l b b b l b d j c U ) ..o.",
"l s l l v l v v v v v v v v v v b l b l b b l b b b b l l b b b b l b b b l b l b b b l j M J W ) ] ",
"0 0 r l v M v l v v v v v v v v b b l b l l b b b b b l l b b b l b l b b b l b l l b l l M A J U E ",
"< 4 0 r l n n M v v v v v v v v l b b b b b b l l l b b b b l l b b l b l b b b b b b l l v M N V V ",
"+ % 6 t v v n v v v v v v v v v b b l l l b b c b b l b b l b b b l b b l b b l b l l b M v l l j f ",
"% - 6 t v N n v v v v v v v v v l b b b b b l b b l b b b b l b b b l b l b b l b b b b l b l d i i ",
"* ; 9 t v M v v v v v v v v v v l b b b b l M l b b l l l l b b l l b b b b b b l b b l c M l d j s ",
"% ; 9 t v v v v v v v v v v v v b b l l b b l b l b b b b b b l b b b l b l l b l b c b l l M M V V ",
"* , 6 r l b c b v v N l c c M l b l b b b l l c b l l b b l l M b b b l M c l l b b c l l c S J E E ",
"+ < 6 r l M M c v v l l M l b c c M b l b b M l b b b l b c M l l l b b l l N M b l M d d M K Q _ ] ",
"- , 6 s l M M l v v M N c x l b M l l M l b b M l b c M l b l M b b c x c M l v b M l l d c P ) } @.",
"O + 4 q d c l l l l l l b b b l j l l c b l j j l j l d l l l s l l l M l l l s l d l p i M K ) | @.",
"  . ; q d l l d d d c M l N l l l s l l M l l s j d i j l s l l d d l c l l l l s l s r r l J ) } o.",
"< 4 0 r b B b M M M c c b l l b v v n c b M v v M M c M b v v M M b b c M v M M M b N b l N P ) } @.",
"m n S F P P P P J S M l l l N S F U D v l M F U P P P P J U K U P J S b M B J P P P J J J P W ' } | ",
"~ ~ ^ ^ ) ) ) ) W J B d i l N P ^ ( E C n S T ^ ) ) ) ) ^ ) ) ) ) W G c N F ^ ` ^ ) ) ) ) ) ) { } | ",
"| | | | | | X.| [ U N g s s N E { } Q S c F ( | o.} } } } } } ..| ' P N N E ` ..X.| | | } } | } } } ",
"O.| X.X.| X.X.@.[ R C s u s C Q } | ^ D n D ( o.o.@.o.} o.| o.o.X.' P N N E [ ..X.| ..| ..@.| [ } } "
};
