/* XPM */
static char *_e37b3b1e1794b7d8586e06fdb97c09fad3bnaAhVY3seCtX[] = {
/* columns rows colors chars-per-pixel */
"50 50 42 1 ",
"  c #00030B",
". c #000E13",
"X c #001215",
"o c #051618",
"O c #08171A",
"+ c #0D191B",
"@ c #131B1C",
"# c #1B1E1F",
"$ c #1B1F20",
"% c #1E2021",
"& c #232323",
"* c #292626",
"= c #2C2827",
"- c #2A2728",
"; c #2E2929",
": c #332D2C",
"> c #382F2D",
", c #37302F",
"< c #39302E",
"1 c #3C3332",
"2 c #423635",
"3 c #443837",
"4 c #493A37",
"5 c #463939",
"6 c #4B3D3B",
"7 c #503F3B",
"8 c #4F403C",
"9 c #53423E",
"0 c #554441",
"q c #5A4742",
"w c #5D4945",
"e c #614C46",
"r c #634E49",
"t c #67504B",
"y c #6B534D",
"u c #6F5650",
"i c #705751",
"p c #755A54",
"a c #795E57",
"s c #7B5F58",
"d c #7D6159",
"f c #80635B",
/* pixels */
"o%4rpffsu0:X X:0isfssassssaaaasdsi7=;0iffsasaaaaaa",
"o%4rpdfsu0:o.o:0iasaapppppappaasau7=;9usapppappaap",
"+&2qyiiit8,-%*,7etyyuyuuuuuyuuuuie4-;7riiyiuuuuuuy",
"@&>6weeew81,1112470qwwwwwwwwwwwww01*-20eewqewrwwww",
"$&:166666656653,--,566666666566665,*&<676666666666",
"$&;1231115668851*%;155225255525551:%*:125451111152",
"$&;1551:,16886531<1555655555555652<&&<266652,;,255",
"$&;355,*-1566666455666666666666663,&&,366651;*:266",
"#$;12<;#&:142223332222222222222522;%&:22332:$$-,55",
"o+&;>:&+O%*;;*;;;:;=-:>>,;--;;;,>>*+@*:>,:-%+o$$;;",
"+@#&*&#@+@#$####$$###%**&$$$$$$&*&#@@%**&$$@$O$$$$",
"<>:&&&;<<<,:>>>>>:>>>;%%&;,1,,;-%%;>>;%#*:>,,,,,::",
"ww7>%=4wewqqqq9wqqwe94;#:6qewq71%*4e94&%17eewwwwwq",
"ppe2&>9yppipippiippiue>%>wiaapr5&:9pi7=&4ypppuuupi",
"aat4&>9pssapppapppaape2*3rpssat6&>eppe:;7yaaappapp",
"yyq2&:9yyyyyyyyyyyyyrq2>3etuuye3*:7ry72>6qrrtyyyyy",
"q06:&-1000000000000006525800006,&;2006511135800000",
"551;&-,355332525435355666555551:&&>35665,%$-155555",
"551;&*1551,,1355553555666552551:&-,25666,$O*156533",
"662;&-1551;-1566566566666666655:&&,588051*%;166665",
"661;&-155:&&:266555555556556651:&&,56554,*&:166555",
"11,-$&;,:*+$*1121111,1,1111111;-$%-,111<;&&-:111,1",
"::&$OO$%$$oO#=;:::-*%%&&--;;-&$+OO$%&%&&%&&%%&&%%%",
"$&&&&&&&&&&&&&&&%&%%&&&&&$&&$&&-&&&&&&&&&&&&&&&&*&",
"@$=247445664>*@+@%:246662-%*247466664644<*&:246656",
"+$29tyyytuur7:@..&4eyuit0,%:7ryytyttyyyr7;&3wyyyty",
"+&4epdapaaau0>@..;7iafspr2%2epfpsaaspaap9>&4ypsppp",
"o$2wippiuppu9>@+&>7tipaie2%>eippiiupippy9:*4rppppi",
"+#,9ereewrrq4;$&:26werre7>$:7eerwwwwwrrw4;&20rrrwe",
"#%;146666685<-&:266666662;%-246666666665<*&:566666",
"-;:125555532:&*,566353331>;;:12233555541>*&;155555",
"112555565562,&&,586655553221:;:256555562>*&:156555",
"655666566665<&*,266666566561:&=<66666665<&&:266666",
"433322223331:&%;155222315551=#&:14322241:&%;121522",
"<1,:====;,,:&$+$&;:=;--;:,1;#O+&-::,>:;*&@+%*;;;;-",
"--&$####$&&-$@+$####$$$$%**&#@@@$&&&*&&#@@@@$$%%##",
"##*;>>>>:*#%=:>>>>>>:><:;&#*;><<::=&&*:><<<::::,:,",
"@#>49eee7<%&20eee99wwwww6,#:79eew9<&&29ewwwqqwqqqw",
"o$2eipaiy7&*7ypppipippppe2&<eipppy4**9yppippppppii",
"o&3rifday7::9iasappappspe2&<eifsay7*=9yadpppppppap",
"$%10tuuur7117ryyttuyttrw7:&<0tuuue5&-6wuyytyyyyytt",
"$$,60q009622600000000631:&&:500q061&&1600900000000",
"$$;155332666555555555,-$@@%;156551:*-,564555511555",
"$%;1511,12666533355531:;&&&-1355531,,11545511,1155",
"$%:2631=:156666666566652<*&=1666665355666661:-,146",
"%&:152:$&,565555565655661:&*1465555566555651-%:146",
"$&=,11=$&;11111111111121<=&&><<211211111111;&%-,12",
"&&&=:;&&&-;:::;:;:;:;:;:;*&&*;:;:;::;::;::;-&%&-=:",
"&&&&&&%&&&&&%&&&&&&&&&%&&&&&&&&&&%&&&&&%&&%&&&&&%&",
"&%%%#$%&&%###############&&%####$$$$##%###%%&%%%##"
};
